<svg id="visual" viewBox="0 0 675 900" width="675" height="900" xmlns="http://www.w3.org/2000/svg" xmlns:xlink="http://www.w3.org/1999/xlink" version="1.1"><g stroke-width="1" stroke-linejoin="bevel"><path d="M380.2 449L409.2 447L383.5 385Z" fill="#92a9ec" stroke="#92a9ec"></path><path d="M383.5 385L335.8 386L380.2 449Z" fill="#c6cef1" stroke="#c6cef1"></path><path d="M409.2 447L457.9 404L383.5 385Z" fill="#d6dbf3" stroke="#d6dbf3"></path><path d="M457.9 404L425.5 359L383.5 385Z" fill="#4f85e6" stroke="#4f85e6"></path><path d="M383.5 385L331.2 314L335.8 386Z" fill="#c6cef1" stroke="#c6cef1"></path><path d="M441.5 506L451.9 461L409.2 447Z" fill="#92a9ec" stroke="#92a9ec"></path><path d="M409.2 447L451.9 461L457.9 404Z" fill="#4f85e6" stroke="#4f85e6"></path><path d="M387.2 523L441.5 506L409.2 447Z" fill="#2a7ae4" stroke="#2a7ae4"></path><path d="M281.8 478L387.2 523L380.2 449Z" fill="#2a7ae4" stroke="#2a7ae4"></path><path d="M380.2 449L387.2 523L409.2 447Z" fill="#92a9ec" stroke="#92a9ec"></path><path d="M331.2 314L290.8 389L335.8 386Z" fill="#c6cef1" stroke="#c6cef1"></path><path d="M335.8 386L281.8 478L380.2 449Z" fill="#b5c1f0" stroke="#b5c1f0"></path><path d="M441.5 506L468.5 495L451.9 461Z" fill="#b5c1f0" stroke="#b5c1f0"></path><path d="M451.9 461L522.9 376L457.9 404Z" fill="#e5e8f4" stroke="#e5e8f4"></path><path d="M425.5 359L331.2 314L383.5 385Z" fill="#c6cef1" stroke="#c6cef1"></path><path d="M469.9 311L456.5 309L425.5 359Z" fill="#6991e8" stroke="#6991e8"></path><path d="M425.5 359L350.8 272L331.2 314Z" fill="#6991e8" stroke="#6991e8"></path><path d="M469.9 311L425.5 359L457.9 404Z" fill="#92a9ec" stroke="#92a9ec"></path><path d="M290.8 389L281.8 478L335.8 386Z" fill="#7f9dea" stroke="#7f9dea"></path><path d="M522.9 376L469.9 311L457.9 404Z" fill="#7f9dea" stroke="#7f9dea"></path><path d="M589.3 435L522.9 376L451.9 461Z" fill="#92a9ec" stroke="#92a9ec"></path><path d="M456.5 309L350.8 272L425.5 359Z" fill="#92a9ec" stroke="#92a9ec"></path><path d="M331.2 314L258.8 313L290.8 389Z" fill="#d6dbf3" stroke="#d6dbf3"></path><path d="M352.2 265L350.8 272L437.5 238Z" fill="#6991e8" stroke="#6991e8"></path><path d="M437.5 238L350.8 272L456.5 309Z" fill="#d6dbf3" stroke="#d6dbf3"></path><path d="M350.8 272L332.2 265L331.2 314Z" fill="#e5e8f4" stroke="#e5e8f4"></path><path d="M281.8 478L298.8 549L387.2 523Z" fill="#a4b5ee" stroke="#a4b5ee"></path><path d="M441.5 506L500.9 538L468.5 495Z" fill="#6991e8" stroke="#6991e8"></path><path d="M468.5 495L589.3 435L451.9 461Z" fill="#2a7ae4" stroke="#2a7ae4"></path><path d="M447.9 605L500.9 538L441.5 506Z" fill="#b5c1f0" stroke="#b5c1f0"></path><path d="M447.9 605L441.5 506L387.2 523Z" fill="#b5c1f0" stroke="#b5c1f0"></path><path d="M298.8 549L309.8 559L387.2 523Z" fill="#4f85e6" stroke="#4f85e6"></path><path d="M352.2 265L332.2 265L350.8 272Z" fill="#a4b5ee" stroke="#a4b5ee"></path><path d="M309.8 559L359.2 583L387.2 523Z" fill="#7f9dea" stroke="#7f9dea"></path><path d="M332.2 265L258.8 313L331.2 314Z" fill="#e5e8f4" stroke="#e5e8f4"></path><path d="M290.8 389L205.5 388L281.8 478Z" fill="#a4b5ee" stroke="#a4b5ee"></path><path d="M258.8 313L236.5 329L290.8 389Z" fill="#e5e8f4" stroke="#e5e8f4"></path><path d="M281.8 478L239.5 513L298.8 549Z" fill="#92a9ec" stroke="#92a9ec"></path><path d="M236.5 329L218.5 371L290.8 389Z" fill="#d6dbf3" stroke="#d6dbf3"></path><path d="M230.1 507L239.5 513L281.8 478Z" fill="#a4b5ee" stroke="#a4b5ee"></path><path d="M298.8 549L258.5 568L309.8 559Z" fill="#6991e8" stroke="#6991e8"></path><path d="M541.3 279L437.5 238L469.9 311Z" fill="#f5f5f5" stroke="#f5f5f5"></path><path d="M469.9 311L437.5 238L456.5 309Z" fill="#c6cef1" stroke="#c6cef1"></path><path d="M352.2 265L331.8 201L332.2 265Z" fill="#2a7ae4" stroke="#2a7ae4"></path><path d="M179.1 421L230.1 507L281.8 478Z" fill="#2a7ae4" stroke="#2a7ae4"></path><path d="M239.5 513L258.5 568L298.8 549Z" fill="#92a9ec" stroke="#92a9ec"></path><path d="M358.2 648L400.5 604L359.2 583Z" fill="#6991e8" stroke="#6991e8"></path><path d="M359.2 583L400.5 604L387.2 523Z" fill="#d6dbf3" stroke="#d6dbf3"></path><path d="M141.1 331L205.5 388L218.5 371Z" fill="#6991e8" stroke="#6991e8"></path><path d="M218.5 371L205.5 388L290.8 389Z" fill="#d6dbf3" stroke="#d6dbf3"></path><path d="M589.3 435L571.3 349L522.9 376Z" fill="#d6dbf3" stroke="#d6dbf3"></path><path d="M522.9 376L541.3 279L469.9 311Z" fill="#b5c1f0" stroke="#b5c1f0"></path><path d="M400.5 604L447.9 605L387.2 523Z" fill="#2a7ae4" stroke="#2a7ae4"></path><path d="M597.3 436L589.3 435L625.6 474Z" fill="#2a7ae4" stroke="#2a7ae4"></path><path d="M500.9 538L589.3 435L468.5 495Z" fill="#b5c1f0" stroke="#b5c1f0"></path><path d="M192.1 577L258.5 568L239.5 513Z" fill="#b5c1f0" stroke="#b5c1f0"></path><path d="M275.5 621L358.2 648L359.2 583Z" fill="#92a9ec" stroke="#92a9ec"></path><path d="M571.3 349L541.3 279L522.9 376Z" fill="#92a9ec" stroke="#92a9ec"></path><path d="M625.6 474L589.3 435L587.3 563Z" fill="#6991e8" stroke="#6991e8"></path><path d="M589.3 435L617.6 405L571.3 349Z" fill="#b5c1f0" stroke="#b5c1f0"></path><path d="M258.8 313L227.1 288L236.5 329Z" fill="#4f85e6" stroke="#4f85e6"></path><path d="M236.5 329L141.1 331L218.5 371Z" fill="#4f85e6" stroke="#4f85e6"></path><path d="M258.5 236L227.1 288L258.8 313Z" fill="#2a7ae4" stroke="#2a7ae4"></path><path d="M258.5 236L258.8 313L332.2 265Z" fill="#f5f5f5" stroke="#f5f5f5"></path><path d="M116.7 381L179.1 421L205.5 388Z" fill="#a4b5ee" stroke="#a4b5ee"></path><path d="M205.5 388L179.1 421L281.8 478Z" fill="#f5f5f5" stroke="#f5f5f5"></path><path d="M192.1 577L275.5 621L258.5 568Z" fill="#c6cef1" stroke="#c6cef1"></path><path d="M521.9 187L443.9 210L437.5 238Z" fill="#4f85e6" stroke="#4f85e6"></path><path d="M437.5 238L331.8 201L352.2 265Z" fill="#d6dbf3" stroke="#d6dbf3"></path><path d="M591.6 321L557.3 275L541.3 279Z" fill="#2a7ae4" stroke="#2a7ae4"></path><path d="M541.3 279L551.3 221L437.5 238Z" fill="#4f85e6" stroke="#4f85e6"></path><path d="M591.6 321L541.3 279L571.3 349Z" fill="#d6dbf3" stroke="#d6dbf3"></path><path d="M647.6 329L591.6 321L571.3 349Z" fill="#92a9ec" stroke="#92a9ec"></path><path d="M443.9 210L331.8 201L437.5 238Z" fill="#c6cef1" stroke="#c6cef1"></path><path d="M597.3 436L617.6 405L589.3 435Z" fill="#92a9ec" stroke="#92a9ec"></path><path d="M331.8 201L258.5 236L332.2 265Z" fill="#f5f5f5" stroke="#f5f5f5"></path><path d="M275.5 621L359.2 583L309.8 559Z" fill="#7f9dea" stroke="#7f9dea"></path><path d="M400.5 604L460.5 680L447.9 605Z" fill="#6991e8" stroke="#6991e8"></path><path d="M192.1 577L239.5 513L230.1 507Z" fill="#a4b5ee" stroke="#a4b5ee"></path><path d="M258.5 568L275.5 621L309.8 559Z" fill="#2a7ae4" stroke="#2a7ae4"></path><path d="M587.3 563L589.3 435L500.9 538Z" fill="#b5c1f0" stroke="#b5c1f0"></path><path d="M597.3 436L625.6 474L617.6 405Z" fill="#92a9ec" stroke="#92a9ec"></path><path d="M460.5 680L495.9 635L447.9 605Z" fill="#2a7ae4" stroke="#2a7ae4"></path><path d="M447.9 605L495.9 635L500.9 538Z" fill="#d6dbf3" stroke="#d6dbf3"></path><path d="M574.3 581L587.3 563L500.9 538Z" fill="#7f9dea" stroke="#7f9dea"></path><path d="M495.9 635L574.3 581L500.9 538Z" fill="#c6cef1" stroke="#c6cef1"></path><path d="M653.6 253L551.3 221L557.3 275Z" fill="#f5f5f5" stroke="#f5f5f5"></path><path d="M557.3 275L551.3 221L541.3 279Z" fill="#4f85e6" stroke="#4f85e6"></path><path d="M164.7 552L192.1 577L230.1 507Z" fill="#2a7ae4" stroke="#2a7ae4"></path><path d="M349.2 156L338.8 163L331.8 201Z" fill="#e5e8f4" stroke="#e5e8f4"></path><path d="M331.8 201L228.5 182L258.5 236Z" fill="#4f85e6" stroke="#4f85e6"></path><path d="M409.2 157L331.8 201L443.9 210Z" fill="#a4b5ee" stroke="#a4b5ee"></path><path d="M437.5 135L409.2 157L443.9 210Z" fill="#b5c1f0" stroke="#b5c1f0"></path><path d="M551.3 221L521.9 187L437.5 238Z" fill="#c6cef1" stroke="#c6cef1"></path><path d="M179.1 421L164.7 552L230.1 507Z" fill="#6991e8" stroke="#6991e8"></path><path d="M409.2 157L349.2 156L331.8 201Z" fill="#92a9ec" stroke="#92a9ec"></path><path d="M495.9 635L564.6 620L574.3 581Z" fill="#a4b5ee" stroke="#a4b5ee"></path><path d="M626.6 612L643.6 574L587.3 563Z" fill="#2a7ae4" stroke="#2a7ae4"></path><path d="M675 514L675 408L625.6 474Z" fill="#2a7ae4" stroke="#2a7ae4"></path><path d="M150.1 234L141.1 331L227.1 288Z" fill="#c6cef1" stroke="#c6cef1"></path><path d="M227.1 288L141.1 331L236.5 329Z" fill="#f5f5f5" stroke="#f5f5f5"></path><path d="M87.4 517L97.4 535L164.7 552Z" fill="#7f9dea" stroke="#7f9dea"></path><path d="M150.1 234L227.1 288L258.5 236Z" fill="#f5f5f5" stroke="#f5f5f5"></path><path d="M675 398L647.6 329L617.6 405Z" fill="#f5f5f5" stroke="#f5f5f5"></path><path d="M617.6 405L647.6 329L571.3 349Z" fill="#d6dbf3" stroke="#d6dbf3"></path><path d="M591.6 321L653.6 253L557.3 275Z" fill="#92a9ec" stroke="#92a9ec"></path><path d="M573.6 176L535.3 155L521.9 187Z" fill="#b5c1f0" stroke="#b5c1f0"></path><path d="M358.2 648L460.5 680L400.5 604Z" fill="#e5e8f4" stroke="#e5e8f4"></path><path d="M605.6 686L594.3 641L537.9 728Z" fill="#7f9dea" stroke="#7f9dea"></path><path d="M141.1 331L116.7 381L205.5 388Z" fill="#6991e8" stroke="#6991e8"></path><path d="M138.1 586L165.7 579L164.7 552Z" fill="#2a7ae4" stroke="#2a7ae4"></path><path d="M164.7 552L165.7 579L192.1 577Z" fill="#a4b5ee" stroke="#a4b5ee"></path><path d="M192.1 577L215.5 685L275.5 621Z" fill="#92a9ec" stroke="#92a9ec"></path><path d="M263.8 727L336.8 692L275.5 621Z" fill="#4f85e6" stroke="#4f85e6"></path><path d="M275.5 621L336.8 692L358.2 648Z" fill="#f5f5f5" stroke="#f5f5f5"></path><path d="M404.5 748L444.9 738L460.5 680Z" fill="#d6dbf3" stroke="#d6dbf3"></path><path d="M625.6 474L675 408L617.6 405Z" fill="#7f9dea" stroke="#7f9dea"></path><path d="M643.6 574L625.6 474L587.3 563Z" fill="#2a7ae4" stroke="#2a7ae4"></path><path d="M675 408L675 398L617.6 405Z" fill="#f5f5f5" stroke="#f5f5f5"></path><path d="M116.7 381L106.7 414L179.1 421Z" fill="#2a7ae4" stroke="#2a7ae4"></path><path d="M521.9 187L437.5 135L443.9 210Z" fill="#6991e8" stroke="#6991e8"></path><path d="M409.2 157L407.5 95L349.2 156Z" fill="#a4b5ee" stroke="#a4b5ee"></path><path d="M269.5 97L228.5 182L338.8 163Z" fill="#c6cef1" stroke="#c6cef1"></path><path d="M338.8 163L228.5 182L331.8 201Z" fill="#d6dbf3" stroke="#d6dbf3"></path><path d="M269.5 97L338.8 163L349.2 156Z" fill="#b5c1f0" stroke="#b5c1f0"></path><path d="M626.6 612L587.3 563L574.3 581Z" fill="#2a7ae4" stroke="#2a7ae4"></path><path d="M643.6 574L675 514L625.6 474Z" fill="#7f9dea" stroke="#7f9dea"></path><path d="M573.6 176L521.9 187L551.3 221Z" fill="#4f85e6" stroke="#4f85e6"></path><path d="M521.9 187L535.3 155L437.5 135Z" fill="#f5f5f5" stroke="#f5f5f5"></path><path d="M83.4 384L106.7 414L116.7 381Z" fill="#c6cef1" stroke="#c6cef1"></path><path d="M83.4 384L92.7 430L106.7 414Z" fill="#7f9dea" stroke="#7f9dea"></path><path d="M106.7 414L92.7 430L179.1 421Z" fill="#b5c1f0" stroke="#b5c1f0"></path><path d="M564.6 620L626.6 612L574.3 581Z" fill="#92a9ec" stroke="#92a9ec"></path><path d="M594.3 641L564.6 620L537.9 728Z" fill="#4f85e6" stroke="#4f85e6"></path><path d="M653.6 253L573.6 176L551.3 221Z" fill="#f5f5f5" stroke="#f5f5f5"></path><path d="M228.5 182L150.1 234L258.5 236Z" fill="#2a7ae4" stroke="#2a7ae4"></path><path d="M96.4 312L83.4 384L116.7 381Z" fill="#4f85e6" stroke="#4f85e6"></path><path d="M594.3 641L626.6 612L564.6 620Z" fill="#a4b5ee" stroke="#a4b5ee"></path><path d="M643.6 574L675 553L675 514Z" fill="#c6cef1" stroke="#c6cef1"></path><path d="M105.4 564L138.1 586L164.7 552Z" fill="#e5e8f4" stroke="#e5e8f4"></path><path d="M154.1 636L215.5 685L192.1 577Z" fill="#d6dbf3" stroke="#d6dbf3"></path><path d="M675 398L675 294L647.6 329Z" fill="#7f9dea" stroke="#7f9dea"></path><path d="M647.6 329L653.6 253L591.6 321Z" fill="#2a7ae4" stroke="#2a7ae4"></path><path d="M675 294L653.6 253L647.6 329Z" fill="#a4b5ee" stroke="#a4b5ee"></path><path d="M96.4 312L116.7 381L141.1 331Z" fill="#d6dbf3" stroke="#d6dbf3"></path><path d="M675 587L675 553L643.6 574Z" fill="#f5f5f5" stroke="#f5f5f5"></path><path d="M100.7 254L96.4 312L141.1 331Z" fill="#2a7ae4" stroke="#2a7ae4"></path><path d="M87.4 517L179.1 421L92.7 430Z" fill="#b5c1f0" stroke="#b5c1f0"></path><path d="M87.4 517L164.7 552L179.1 421Z" fill="#a4b5ee" stroke="#a4b5ee"></path><path d="M154.1 636L192.1 577L165.7 579Z" fill="#4f85e6" stroke="#4f85e6"></path><path d="M154.1 636L165.7 579L138.1 586Z" fill="#b5c1f0" stroke="#b5c1f0"></path><path d="M0 442L87.4 517L92.7 430Z" fill="#b5c1f0" stroke="#b5c1f0"></path><path d="M0 573L105.4 564L97.4 535Z" fill="#4f85e6" stroke="#4f85e6"></path><path d="M97.4 535L105.4 564L164.7 552Z" fill="#d6dbf3" stroke="#d6dbf3"></path><path d="M455.9 84L407.5 95L437.5 135Z" fill="#92a9ec" stroke="#92a9ec"></path><path d="M437.5 135L407.5 95L409.2 157Z" fill="#7f9dea" stroke="#7f9dea"></path><path d="M119.7 674L154.1 636L138.1 586Z" fill="#2a7ae4" stroke="#2a7ae4"></path><path d="M404.5 748L358.2 648L336.8 692Z" fill="#7f9dea" stroke="#7f9dea"></path><path d="M404.5 748L460.5 680L358.2 648Z" fill="#f5f5f5" stroke="#f5f5f5"></path><path d="M537.9 728L564.6 620L495.9 635Z" fill="#c6cef1" stroke="#c6cef1"></path><path d="M675 662L675 587L626.6 612Z" fill="#e5e8f4" stroke="#e5e8f4"></path><path d="M626.6 612L675 587L643.6 574Z" fill="#a4b5ee" stroke="#a4b5ee"></path><path d="M263.8 727L356.2 746L336.8 692Z" fill="#b5c1f0" stroke="#b5c1f0"></path><path d="M356.2 746L404.5 748L336.8 692Z" fill="#c6cef1" stroke="#c6cef1"></path><path d="M228.5 182L149.1 190L150.1 234Z" fill="#c6cef1" stroke="#c6cef1"></path><path d="M150.1 234L100.7 254L141.1 331Z" fill="#c6cef1" stroke="#c6cef1"></path><path d="M166.1 77L149.1 190L228.5 182Z" fill="#6991e8" stroke="#6991e8"></path><path d="M120.7 208L100.7 254L150.1 234Z" fill="#d6dbf3" stroke="#d6dbf3"></path><path d="M96.4 312L24.4 338L83.4 384Z" fill="#a4b5ee" stroke="#a4b5ee"></path><path d="M219.5 738L263.8 727L215.5 685Z" fill="#7f9dea" stroke="#7f9dea"></path><path d="M215.5 685L263.8 727L275.5 621Z" fill="#92a9ec" stroke="#92a9ec"></path><path d="M110.4 112L138.7 193L149.1 190Z" fill="#f5f5f5" stroke="#f5f5f5"></path><path d="M149.1 190L138.7 193L150.1 234Z" fill="#7f9dea" stroke="#7f9dea"></path><path d="M471.5 54L455.9 84L535.3 155Z" fill="#7f9dea" stroke="#7f9dea"></path><path d="M535.3 155L455.9 84L437.5 135Z" fill="#92a9ec" stroke="#92a9ec"></path><path d="M675 294L675 224L653.6 253Z" fill="#4f85e6" stroke="#4f85e6"></path><path d="M653.6 253L675 224L573.6 176Z" fill="#d6dbf3" stroke="#d6dbf3"></path><path d="M550.3 41L471.5 54L535.3 155Z" fill="#b5c1f0" stroke="#b5c1f0"></path><path d="M537.9 728L495.9 635L460.5 680Z" fill="#4f85e6" stroke="#4f85e6"></path><path d="M594.3 641L675 662L626.6 612Z" fill="#6991e8" stroke="#6991e8"></path><path d="M518.3 757L460.5 680L444.9 738Z" fill="#7f9dea" stroke="#7f9dea"></path><path d="M518.3 757L537.9 728L460.5 680Z" fill="#4f85e6" stroke="#4f85e6"></path><path d="M138.7 193L120.7 208L150.1 234Z" fill="#92a9ec" stroke="#92a9ec"></path><path d="M317.8 49L349.2 156L353.2 43Z" fill="#d6dbf3" stroke="#d6dbf3"></path><path d="M317.8 49L269.5 97L349.2 156Z" fill="#2a7ae4" stroke="#2a7ae4"></path><path d="M119.7 674L148.7 674L154.1 636Z" fill="#4f85e6" stroke="#4f85e6"></path><path d="M154.1 636L148.7 674L215.5 685Z" fill="#c6cef1" stroke="#c6cef1"></path><path d="M266.8 0L241.5 94L269.5 97Z" fill="#d6dbf3" stroke="#d6dbf3"></path><path d="M269.5 97L241.5 94L228.5 182Z" fill="#e5e8f4" stroke="#e5e8f4"></path><path d="M110.4 112L67.4 215L120.7 208Z" fill="#d6dbf3" stroke="#d6dbf3"></path><path d="M442.5 796L518.3 757L444.9 738Z" fill="#a4b5ee" stroke="#a4b5ee"></path><path d="M598.3 760L675 693L605.6 686Z" fill="#7f9dea" stroke="#7f9dea"></path><path d="M442.5 796L444.9 738L404.5 748Z" fill="#92a9ec" stroke="#92a9ec"></path><path d="M161.1 721L219.5 738L215.5 685Z" fill="#92a9ec" stroke="#92a9ec"></path><path d="M263.8 805L365.2 814L356.2 746Z" fill="#2a7ae4" stroke="#2a7ae4"></path><path d="M365.2 814L442.5 796L404.5 748Z" fill="#6991e8" stroke="#6991e8"></path><path d="M550.3 41L535.3 155L623.6 71Z" fill="#c6cef1" stroke="#c6cef1"></path><path d="M455.9 84L450.9 35L407.5 95Z" fill="#92a9ec" stroke="#92a9ec"></path><path d="M675 693L675 662L605.6 686Z" fill="#d6dbf3" stroke="#d6dbf3"></path><path d="M605.6 686L675 662L594.3 641Z" fill="#c6cef1" stroke="#c6cef1"></path><path d="M105.4 564L119.7 674L138.1 586Z" fill="#4f85e6" stroke="#4f85e6"></path><path d="M148.7 674L161.1 721L215.5 685Z" fill="#4f85e6" stroke="#4f85e6"></path><path d="M0 677L119.7 674L105.4 564Z" fill="#b5c1f0" stroke="#b5c1f0"></path><path d="M353.2 43L349.2 156L407.5 95Z" fill="#92a9ec" stroke="#92a9ec"></path><path d="M409.5 0L353.2 43L407.5 95Z" fill="#f5f5f5" stroke="#f5f5f5"></path><path d="M100.7 254L24.4 338L96.4 312Z" fill="#4f85e6" stroke="#4f85e6"></path><path d="M83.4 384L0 423L92.7 430Z" fill="#e5e8f4" stroke="#e5e8f4"></path><path d="M87.4 517L0 543L97.4 535Z" fill="#a4b5ee" stroke="#a4b5ee"></path><path d="M0 324L24.4 338L100.7 254Z" fill="#a4b5ee" stroke="#a4b5ee"></path><path d="M675 224L675 161L573.6 176Z" fill="#7f9dea" stroke="#7f9dea"></path><path d="M119.7 674L161.1 721L148.7 674Z" fill="#92a9ec" stroke="#92a9ec"></path><path d="M365.2 814L404.5 748L356.2 746Z" fill="#7f9dea" stroke="#7f9dea"></path><path d="M110.4 112L120.7 208L138.7 193Z" fill="#e5e8f4" stroke="#e5e8f4"></path><path d="M120.7 208L67.4 215L100.7 254Z" fill="#d6dbf3" stroke="#d6dbf3"></path><path d="M471.5 54L450.9 35L455.9 84Z" fill="#4f85e6" stroke="#4f85e6"></path><path d="M512.9 0L450.9 35L471.5 54Z" fill="#f5f5f5" stroke="#f5f5f5"></path><path d="M675 161L675 145L573.6 176Z" fill="#6991e8" stroke="#6991e8"></path><path d="M24.4 338L0 423L83.4 384Z" fill="#c6cef1" stroke="#c6cef1"></path><path d="M0 423L0 442L92.7 430Z" fill="#d6dbf3" stroke="#d6dbf3"></path><path d="M598.3 760L605.6 686L537.9 728Z" fill="#4f85e6" stroke="#4f85e6"></path><path d="M598.3 760L537.9 728L518.3 757Z" fill="#f5f5f5" stroke="#f5f5f5"></path><path d="M198.5 764L224.1 776L219.5 738Z" fill="#f5f5f5" stroke="#f5f5f5"></path><path d="M219.5 738L224.1 776L263.8 727Z" fill="#f5f5f5" stroke="#f5f5f5"></path><path d="M161.1 721L198.5 764L219.5 738Z" fill="#e5e8f4" stroke="#e5e8f4"></path><path d="M223.5 793L198.5 764L156.7 807Z" fill="#4f85e6" stroke="#4f85e6"></path><path d="M260.8 795L356.2 746L263.8 727Z" fill="#4f85e6" stroke="#4f85e6"></path><path d="M0 324L0 347L24.4 338Z" fill="#b5c1f0" stroke="#b5c1f0"></path><path d="M24.4 338L0 347L0 423Z" fill="#d6dbf3" stroke="#d6dbf3"></path><path d="M468.5 824L518.3 757L442.5 796Z" fill="#a4b5ee" stroke="#a4b5ee"></path><path d="M573.6 820L598.3 760L518.3 757Z" fill="#e5e8f4" stroke="#e5e8f4"></path><path d="M263.8 805L260.8 795L223.5 793Z" fill="#d6dbf3" stroke="#d6dbf3"></path><path d="M224.1 776L260.8 795L263.8 727Z" fill="#2a7ae4" stroke="#2a7ae4"></path><path d="M67.4 215L0 324L100.7 254Z" fill="#4f85e6" stroke="#4f85e6"></path><path d="M623.6 71L535.3 155L573.6 176Z" fill="#e5e8f4" stroke="#e5e8f4"></path><path d="M223.5 793L260.8 795L224.1 776Z" fill="#f5f5f5" stroke="#f5f5f5"></path><path d="M260.8 795L263.8 805L356.2 746Z" fill="#2a7ae4" stroke="#2a7ae4"></path><path d="M231.5 0L166.1 77L241.5 94Z" fill="#a4b5ee" stroke="#a4b5ee"></path><path d="M241.5 94L166.1 77L228.5 182Z" fill="#a4b5ee" stroke="#a4b5ee"></path><path d="M204.1 828L223.5 793L156.7 807Z" fill="#e5e8f4" stroke="#e5e8f4"></path><path d="M198.5 764L223.5 793L224.1 776Z" fill="#92a9ec" stroke="#92a9ec"></path><path d="M0 442L0 543L87.4 517Z" fill="#7f9dea" stroke="#7f9dea"></path><path d="M119.7 674L81.4 703L161.1 721Z" fill="#a4b5ee" stroke="#a4b5ee"></path><path d="M430.5 900L468.5 824L442.5 796Z" fill="#a4b5ee" stroke="#a4b5ee"></path><path d="M523.9 836L468.5 824L465.9 900Z" fill="#b5c1f0" stroke="#b5c1f0"></path><path d="M166.1 77L147.1 84L149.1 190Z" fill="#f5f5f5" stroke="#f5f5f5"></path><path d="M67.4 215L0 216L0 324Z" fill="#92a9ec" stroke="#92a9ec"></path><path d="M147.1 84L110.4 112L149.1 190Z" fill="#2a7ae4" stroke="#2a7ae4"></path><path d="M675 145L623.6 71L573.6 176Z" fill="#d6dbf3" stroke="#d6dbf3"></path><path d="M512.9 0L409.5 0L450.9 35Z" fill="#b5c1f0" stroke="#b5c1f0"></path><path d="M450.9 35L409.5 0L407.5 95Z" fill="#4f85e6" stroke="#4f85e6"></path><path d="M353.2 43L329.2 0L317.8 49Z" fill="#4f85e6" stroke="#4f85e6"></path><path d="M317.8 49L266.8 0L269.5 97Z" fill="#c6cef1" stroke="#c6cef1"></path><path d="M0 543L0 573L97.4 535Z" fill="#92a9ec" stroke="#92a9ec"></path><path d="M0 677L81.4 703L119.7 674Z" fill="#c6cef1" stroke="#c6cef1"></path><path d="M409.5 0L329.2 0L353.2 43Z" fill="#e5e8f4" stroke="#e5e8f4"></path><path d="M166.1 77L129.7 80L147.1 84Z" fill="#d6dbf3" stroke="#d6dbf3"></path><path d="M675 145L660.6 88L623.6 71Z" fill="#a4b5ee" stroke="#a4b5ee"></path><path d="M147.1 84L129.7 80L110.4 112Z" fill="#92a9ec" stroke="#92a9ec"></path><path d="M147.1 0L129.7 80L166.1 77Z" fill="#2a7ae4" stroke="#2a7ae4"></path><path d="M39.4 95L29.4 186L110.4 112Z" fill="#4f85e6" stroke="#4f85e6"></path><path d="M110.4 112L29.4 186L67.4 215Z" fill="#4f85e6" stroke="#4f85e6"></path><path d="M539.3 0L512.9 0L550.3 41Z" fill="#f5f5f5" stroke="#f5f5f5"></path><path d="M550.3 41L512.9 0L471.5 54Z" fill="#b5c1f0" stroke="#b5c1f0"></path><path d="M539.3 0L550.3 41L568.6 0Z" fill="#e5e8f4" stroke="#e5e8f4"></path><path d="M329.2 0L266.8 0L317.8 49Z" fill="#6991e8" stroke="#6991e8"></path><path d="M430.5 900L442.5 796L365.2 814Z" fill="#4f85e6" stroke="#4f85e6"></path><path d="M468.5 824L523.9 836L518.3 757Z" fill="#92a9ec" stroke="#92a9ec"></path><path d="M598.3 760L675 818L675 693Z" fill="#2a7ae4" stroke="#2a7ae4"></path><path d="M523.9 836L573.6 820L518.3 757Z" fill="#a4b5ee" stroke="#a4b5ee"></path><path d="M0 213L0 216L29.4 186Z" fill="#6991e8" stroke="#6991e8"></path><path d="M29.4 186L0 216L67.4 215Z" fill="#f5f5f5" stroke="#f5f5f5"></path><path d="M568.6 0L550.3 41L623.6 71Z" fill="#d6dbf3" stroke="#d6dbf3"></path><path d="M0 100L0 213L29.4 186Z" fill="#2a7ae4" stroke="#2a7ae4"></path><path d="M318.2 900L347.2 862L272.8 900Z" fill="#d6dbf3" stroke="#d6dbf3"></path><path d="M263.8 805L347.2 862L365.2 814Z" fill="#4f85e6" stroke="#4f85e6"></path><path d="M266.8 0L231.5 0L241.5 94Z" fill="#6991e8" stroke="#6991e8"></path><path d="M156.7 807L198.5 764L161.1 721Z" fill="#4f85e6" stroke="#4f85e6"></path><path d="M223.5 793L204.1 828L263.8 805Z" fill="#c6cef1" stroke="#c6cef1"></path><path d="M675 0L568.6 0L623.6 71Z" fill="#4f85e6" stroke="#4f85e6"></path><path d="M80.7 807L156.7 807L161.1 721Z" fill="#b5c1f0" stroke="#b5c1f0"></path><path d="M465.9 900L551.3 849L523.9 836Z" fill="#b5c1f0" stroke="#b5c1f0"></path><path d="M523.9 836L551.3 849L573.6 820Z" fill="#2a7ae4" stroke="#2a7ae4"></path><path d="M573.6 820L675 818L598.3 760Z" fill="#2a7ae4" stroke="#2a7ae4"></path><path d="M675 145L675 49L660.6 88Z" fill="#f5f5f5" stroke="#f5f5f5"></path><path d="M660.6 88L675 49L623.6 71Z" fill="#4f85e6" stroke="#4f85e6"></path><path d="M0 573L0 677L105.4 564Z" fill="#c6cef1" stroke="#c6cef1"></path><path d="M81.4 703L80.7 807L161.1 721Z" fill="#92a9ec" stroke="#92a9ec"></path><path d="M0 677L22.4 709L81.4 703Z" fill="#2a7ae4" stroke="#2a7ae4"></path><path d="M72.7 50L110.4 112L129.7 80Z" fill="#b5c1f0" stroke="#b5c1f0"></path><path d="M72.7 50L39.4 95L110.4 112Z" fill="#d6dbf3" stroke="#d6dbf3"></path><path d="M318.2 900L430.5 900L347.2 862Z" fill="#e5e8f4" stroke="#e5e8f4"></path><path d="M347.2 862L430.5 900L365.2 814Z" fill="#d6dbf3" stroke="#d6dbf3"></path><path d="M231.5 0L147.1 0L166.1 77Z" fill="#4f85e6" stroke="#4f85e6"></path><path d="M108.7 0L72.7 50L129.7 80Z" fill="#e5e8f4" stroke="#e5e8f4"></path><path d="M430.5 900L465.9 900L468.5 824Z" fill="#d6dbf3" stroke="#d6dbf3"></path><path d="M272.8 900L347.2 862L263.8 805Z" fill="#a4b5ee" stroke="#a4b5ee"></path><path d="M272.8 900L263.8 805L204.1 828Z" fill="#6991e8" stroke="#6991e8"></path><path d="M675 828L573.6 820L641.6 883Z" fill="#a4b5ee" stroke="#a4b5ee"></path><path d="M675 828L675 818L573.6 820Z" fill="#92a9ec" stroke="#92a9ec"></path><path d="M213.5 900L204.1 828L145.7 900Z" fill="#e5e8f4" stroke="#e5e8f4"></path><path d="M213.5 900L272.8 900L204.1 828Z" fill="#d6dbf3" stroke="#d6dbf3"></path><path d="M600.3 900L573.6 820L551.3 849Z" fill="#a4b5ee" stroke="#a4b5ee"></path><path d="M24.4 762L81.4 703L22.4 709Z" fill="#2a7ae4" stroke="#2a7ae4"></path><path d="M24.4 762L80.7 807L81.4 703Z" fill="#7f9dea" stroke="#7f9dea"></path><path d="M675 49L675 0L623.6 71Z" fill="#2a7ae4" stroke="#2a7ae4"></path><path d="M0 745L24.4 762L22.4 709Z" fill="#2a7ae4" stroke="#2a7ae4"></path><path d="M147.1 0L108.7 0L129.7 80Z" fill="#d6dbf3" stroke="#d6dbf3"></path><path d="M0 73L0 100L39.4 95Z" fill="#d6dbf3" stroke="#d6dbf3"></path><path d="M0 73L39.4 95L72.7 50Z" fill="#4f85e6" stroke="#4f85e6"></path><path d="M39.4 95L0 100L29.4 186Z" fill="#7f9dea" stroke="#7f9dea"></path><path d="M108.7 0L100.4 0L72.7 50Z" fill="#f5f5f5" stroke="#f5f5f5"></path><path d="M0 677L0 745L22.4 709Z" fill="#92a9ec" stroke="#92a9ec"></path><path d="M145.1 900L156.7 807L80.7 807Z" fill="#f5f5f5" stroke="#f5f5f5"></path><path d="M145.7 900L204.1 828L156.7 807Z" fill="#6991e8" stroke="#6991e8"></path><path d="M0 0L0 73L72.7 50Z" fill="#d6dbf3" stroke="#d6dbf3"></path><path d="M465.9 900L600.3 900L551.3 849Z" fill="#2a7ae4" stroke="#2a7ae4"></path><path d="M600.3 900L603.6 900L573.6 820Z" fill="#c6cef1" stroke="#c6cef1"></path><path d="M603.6 900L641.6 883L573.6 820Z" fill="#7f9dea" stroke="#7f9dea"></path><path d="M145.1 900L145.7 900L156.7 807Z" fill="#92a9ec" stroke="#92a9ec"></path><path d="M145.1 900L80.7 807L25.4 900Z" fill="#e5e8f4" stroke="#e5e8f4"></path><path d="M0 798L80.7 807L24.4 762Z" fill="#c6cef1" stroke="#c6cef1"></path><path d="M0 745L0 798L24.4 762Z" fill="#a4b5ee" stroke="#a4b5ee"></path><path d="M603.6 900L675 900L641.6 883Z" fill="#c6cef1" stroke="#c6cef1"></path><path d="M641.6 883L675 900L675 828Z" fill="#d6dbf3" stroke="#d6dbf3"></path><path d="M0 798L0 835L80.7 807Z" fill="#c6cef1" stroke="#c6cef1"></path><path d="M100.4 0L0 0L72.7 50Z" fill="#a4b5ee" stroke="#a4b5ee"></path><path d="M0 835L21.4 889L80.7 807Z" fill="#b5c1f0" stroke="#b5c1f0"></path><path d="M0 900L25.4 900L21.4 889Z" fill="#f5f5f5" stroke="#f5f5f5"></path><path d="M21.4 889L25.4 900L80.7 807Z" fill="#e5e8f4" stroke="#e5e8f4"></path><path d="M0 835L0 900L21.4 889Z" fill="#f5f5f5" stroke="#f5f5f5"></path></g></svg>